{"title":"Space Chimps 2 Zartog Strikes Back 2010 CAMRip XviD-RELiZLAB","uid":5744771,"size":719306746,"categoryP":"video","categoryS":"movies","magnet":"?xt=urn:btih:4314b6ddfc226d94dd15f5f48f96761be7450841&amp;dn=Space+Chimps+2+Zartog+Strikes+Back+2010+CAMRip+XviD-RELiZLAB&amp;tr=udp%3A%2F%2Ftracker.openbittorrent.com%3A80&amp;tr=udp%3A%2F%2Fopen.demonii.com%3A1337&amp;tr=udp%3A%2F%2Ftracker.coppersurfer.tk%3A6969&amp;tr=udp%3A%2F%2Fexodus.desync.com%3A6969","seeders":0,"leechers":0,"uploader":"hiest","files":1,"time":1281170538,"description":" &lt;a href=&quot;http://www.imdb.com/title/tt1537481/&quot; rel=&quot;nofollow&quot; target=&quot;_NEW&quot;&gt;http://www.imdb.com/title/tt1537481/&lt;/a&gt;\n\nGeneral\nComplete name : Space Chimps 2 Zartog Strikes Back 2010 CAMRip\nXviD-RELiZLAB\nFormat : AVI\nFormat/Info : Audio Video Interleave\nFile size : 686 MiB\nDuration : 1h 8mn\nOverall bit rate : 1 398 Kbps\nWriting library : VirtualDub-MPEG2 build 24586/release\n\nVideo\nID : 0\nFormat : MPEG-4 Visual\nFormat profile : Advanced Simple@L5\nFormat settings, BVOP : Yes\nFormat settings, QPel : No\nFormat settings, GMC : No warppoints\nFormat settings, Matrix : Default (H.263)\nMuxing mode : Packed bitstream\nCodec ID : XVID\nCodec ID/Hint : XviD\nDuration : 1h 8mn\nBit rate : 1 196 Kbps\nWidth : 704 pixels\nHeight : 448 pixels\nDisplay aspect ratio : 1.571\nFrame rate : 25.000 fps\nColor space : YUV\nChroma subsampling : 4:2:0\nBit depth : 8 bits\nScan type : Progressive\nBits/(Pixel*Frame) : 0.152\nStream size : 587 MiB (86%)\nWriting library : XviD 1.2.1 (UTC 2008-12-04)\n\nAudio RUSSIAN\nID : 1\nFormat : MPEG Audio\nFormat version : Version 1\nFormat profile : Layer 3\nMode : Joint stereo\nMode extension : MS Stereo\nCodec ID : 55\nCodec ID/Hint : MP3\nDuration : 1h 8mn\nBit rate mode : Constant\nBit rate : 192 Kbps\nChannel(s) : 2 channels\nSampling rate : 48.0 KHz\nStream size : 94.2 MiB (14%)\nAlignment : Split accross interleaves\nInterleave, duration : 40 ms (1.00 video frame)\nInterleave, preload duration : 500 ms\n\n\n\nScreenshots:\n &lt;a href=&quot;\nhttp://www.starshare.ro/bitbucket/martyshky_2.avi_thumbs_%5B2010.08.07_09.01.18%5D.jpg&quot; rel=&quot;nofollow&quot; target=&quot;_NEW&quot;&gt;\nhttp://www.starshare.ro/bitbucket/martyshky_2.avi_thumbs_%5B2010.08.07_09.01.18%5D.jpg&lt;/a&gt;\n\n\n","torrent":{"xt":"urn:btih:4314b6ddfc226d94dd15f5f48f96761be7450841","amp;dn":"Space+Chimps+2+Zartog+Strikes+Back+2010+CAMRip+XviD-RELiZLAB","amp;tr":["udp%3A%2F%2Ftracker.openbittorrent.com%3A80","udp%3A%2F%2Fopen.demonii.com%3A1337","udp%3A%2F%2Ftracker.coppersurfer.tk%3A6969","udp%3A%2F%2Fexodus.desync.com%3A6969"],"infoHash":"4314b6ddfc226d94dd15f5f48f96761be7450841","infoHashBuffer":{"type":"Buffer","data":[67,20,182,221,252,34,109,148,221,21,245,244,143,150,118,27,231,69,8,65]},"announce":[],"urlList":[]}}